# xmcd
#
# Track frame offsets: 
#        150
#        23088
#        41748
#        60988
#        78443
#        92555
#        112963
#        140018
#        160835
#        179178
#        202483
#        224763
#        248463
#
# Disc length: 3641 seconds
#
# Revision: 0
# Processed by: cddbd v1.5.2PL0 Copyright (c) Steve Scherf et al.
# Submitted via: ExactAudioCopy v1.3
#
DISCID=bb0e370d
DTITLE=Bobby Mack and Night Train - Honeytrap
DYEAR=1993
DGENRE=Blues Rock
TTITLE0=Honeytrap
TTITLE1=Promise Me Love
TTITLE2=Only Getting Second Best
TTITLE3=Love Can Be Cruel
TTITLE4=Get Your Love
TTITLE5=Tell Me Who (Do You Love)
TTITLE6=That's Alright
TTITLE7=Drivin' Sideways
TTITLE8=Come Back Baby
TTITLE9=Eazy Baby
TTITLE10=Got A feeling
TTITLE11=I'm Gonna Love You
TTITLE12=So Low Down
EXTD=
EXTT0=
EXTT1=
EXTT2=
EXTT3=
EXTT4=
EXTT5=
EXTT6=
EXTT7=
EXTT8=
EXTT9=
EXTT10=
EXTT11=
EXTT12=
PLAYORDER=
